<?xml version="1.0"?>
<svg width="4000" height="4000" xmlns="http://www.w3.org/2000/svg" xmlns:svg="http://www.w3.org/2000/svg" enable-background="new 0 0 4000 4000" version="1.1" xml:space="preserve">
 <g class="layer">
  <title>Layer 1</title>
  <path d="m2888.27,3224.31c24.36,-19.04 48.23,-37.55 72.03,-56.14c36.17,-28.26 70,-59.16 102.44,-91.59c16.83,-16.84 34.19,-33.25 49.98,-51.03c26.69,-30.02 53.17,-60.32 78.17,-91.74c24.19,-30.39 46.88,-62.01 69.32,-93.73c12.84,-18.16 24.18,-37.42 35.62,-56.53c14.16,-23.65 28.23,-47.37 41.38,-71.58c12.86,-23.68 24.93,-47.8 36.57,-72.11c9.9,-20.68 19.23,-41.67 27.82,-62.92c10.21,-25.26 19.88,-50.76 28.81,-76.49c10.23,-29.5 20.47,-59.08 28.77,-89.17c10.06,-36.5 19.32,-73.33 26.7,-110.46c8.41,-42.31 14.75,-85.06 21.22,-127.74c2.73,-18.02 4,-36.32 5.07,-54.54c1.76,-29.85 2.85,-59.75 4.13,-89.63c0.6,-13.95 1.67,-27.92 1.28,-41.85c-0.89,-31.89 -1.82,-63.81 -4.11,-95.62c-2.13,-29.45 -5.25,-58.89 -9.37,-88.14c-4.81,-34.19 -10.52,-68.29 -17,-102.21c-10.69,-55.88 -25.46,-110.78 -42.93,-164.9c-18.6,-57.65 -40.19,-114.2 -66.27,-168.91c-14.17,-29.72 -28.73,-59.29 -44.32,-88.28c-24.1,-44.82 -50.75,-88.17 -79.59,-130.13c-29.8,-43.34 -61.4,-85.35 -95.75,-125.17c-21.71,-25.18 -43.91,-50.01 -67.13,-73.78c-25.93,-26.53 -52.8,-52.21 -80.13,-77.31c-32.57,-29.91 -66.83,-57.89 -102.81,-83.68c-28.1,-20.14 -55.95,-40.68 -84.81,-59.67c-36.95,-24.33 -75.14,-46.69 -114.49,-67c-15.06,-7.77 -29.89,-16.07 -45.29,-23.13c-30.52,-13.99 -61.19,-27.69 -92.12,-40.75c-21.7,-9.17 -43.63,-18.02 -66,-25.35c-37.86,-12.43 -76.06,-23.88 -114.32,-35.06c-19.43,-5.68 -39.3,-9.87 -58.97,-14.71c-0.6,-0.15 -1.27,-0.02 -1.77,-0.02c-0.4,0.25 -0.72,0.38 -0.94,0.61c-0.22,0.23 -0.5,0.56 -0.5,0.85c-0.02,32.3 -0.02,64.61 -0.02,99.55c17.71,17.24 37.02,35.79 56.05,54.63c37.39,37.02 74.64,74.18 111.91,111.32c55.21,55.01 110.42,110.01 165.55,165.09c25.27,25.25 50.28,50.76 75.51,76.05c31.51,31.59 63.06,63.12 94.69,94.58c19.7,19.59 39.55,39.02 59.37,58.48c5.13,5.03 7.93,10.28 7.91,18.17c-0.28,201.33 -0.22,402.65 -0.21,603.98c0,3.95 0,7.9 0,11.56c133.39,44.83 204.2,162.17 187.25,292.38c-17.47,134.3 -125.38,220.75 -240.57,229.56c-151.79,11.6 -261.12,-91.4 -285.55,-210.26c-26.54,-129.16 39.61,-262.72 183.45,-311.53c0,-2.96 0,-6.24 0,-9.51c0.01,-180.66 -0.01,-361.32 0.13,-541.98c0.01,-6.48 -1.83,-11.03 -6.52,-15.7c-118.19,-117.9 -236.18,-236.02 -354.28,-354.01c-25.74,-25.71 -51.89,-50.99 -77.67,-76.66c-17.23,-17.16 -34.01,-34.78 -51.22,-51.97c-14.69,-14.66 -29.78,-28.9 -44.55,-43.49c-10.83,-10.69 -21.43,-21.62 -32.1,-32.48c-3.84,-3.9 -5.93,-8.19 -5.92,-14.12c0.19,-109.66 0.13,-219.33 0.15,-328.99c0,-2.26 0.19,-4.53 0.34,-7.94c4.04,0.18 7.6,0.1 11.09,0.55c13.49,1.75 26.95,3.71 40.42,5.53c21.69,2.93 43.39,5.72 65.05,8.77c6.23,0.88 12.38,2.39 18.54,3.72c29.79,6.48 59.72,12.41 89.34,19.65c28.32,6.92 56.38,14.96 84.42,22.98c19.43,5.55 38.78,11.46 57.9,18c18.2,6.22 36.09,13.36 54.05,20.3c14.54,5.61 29.06,11.3 43.42,17.35c16.19,6.81 32.35,13.71 48.23,21.19c23.66,11.15 47.22,22.56 70.54,34.42c18,9.16 35.71,18.92 53.29,28.86c20.17,11.42 40.37,22.85 60,35.15c22.21,13.92 44.03,28.5 65.62,43.36c20.46,14.08 40.68,28.54 60.52,43.49c18.23,13.74 35.97,28.17 53.63,42.66c16.67,13.67 33.48,27.24 49.31,41.86c30.04,27.73 59.75,55.82 88.93,84.46c15.55,15.25 29.77,31.87 44.43,48.02c14.67,16.16 29.42,32.27 43.62,48.85c12.07,14.11 23.62,28.68 35,43.35c15.44,19.9 30.71,39.93 45.65,60.21c9.22,12.53 17.84,25.52 26.45,38.48c11.92,17.94 23.67,35.98 35.31,54.1c7.14,11.12 14.2,22.31 20.83,33.73c9.8,16.91 19.43,33.92 28.7,51.12c9.73,18.05 19.12,36.29 28.33,54.61c9.66,19.22 19.05,38.57 28.32,57.98c5.42,11.35 10.68,22.79 15.48,34.42c9.1,22.07 18.13,44.19 26.6,66.51c7.29,19.22 14.19,38.61 20.5,58.18c7.31,22.66 13.87,45.56 20.59,68.41c4.02,13.68 8.22,27.33 11.45,41.2c7.22,31 14.31,62.05 20.63,93.24c5.47,26.96 10.25,54.08 14.52,81.26c2.88,18.33 4.72,36.85 6.33,55.35c2.51,28.74 4.6,57.53 6.53,86.32c1.05,15.58 1.62,31.2 2.02,46.81c0.68,26.6 1.96,53.23 1.3,79.81c-0.72,29.17 -3.37,58.29 -5.15,87.43c-0.78,12.93 -1.02,25.9 -2.33,38.77c-1.94,19.13 -4.48,38.2 -7,57.26c-2.82,21.36 -5.69,42.71 -8.94,64c-1.75,11.49 -4.2,22.88 -6.61,34.26c-5.2,24.67 -10.28,49.37 -15.99,73.92c-5.7,24.53 -11.58,49.03 -18.37,73.27c-5.89,21.06 -13.01,41.78 -19.86,62.57c-6.43,19.54 -12.9,39.08 -19.94,58.4c-5.79,15.88 -12.36,31.49 -18.75,47.15c-6.76,16.59 -13.51,33.19 -20.67,49.6c-5.31,12.18 -11.2,24.11 -16.94,36.1c-7.87,16.44 -15.42,33.07 -23.88,49.21c-10.78,20.55 -22.12,40.81 -33.61,60.98c-9.87,17.3 -19.78,34.62 -30.58,51.35c-16.14,25.01 -32.88,49.64 -49.73,74.17c-12.36,17.99 -24.66,36.08 -38.13,53.22c-19.41,24.71 -39.52,48.9 -59.97,72.75c-19.62,22.89 -39.71,45.4 -60.27,67.45c-13.93,14.95 -28.99,28.86 -43.63,43.14c-8.99,8.77 -17.92,17.65 -27.3,26c-20.05,17.87 -40.02,35.86 -60.69,53c-27.54,22.82 -55.2,45.54 -83.76,67.04c-23.54,17.71 -48.28,33.85 -72.83,50.18c-23.2,15.43 -46.52,30.72 -70.37,45.09c-20.71,12.48 -42.1,23.85 -63.44,35.24c-21.05,11.23 -42.2,22.32 -63.69,32.67c-22.04,10.6 -44.49,20.36 -66.87,30.23c-15.48,6.83 -30.98,13.67 -46.78,19.7c-23.86,9.11 -47.97,17.59 -72.02,26.2c-12.79,4.58 -25.57,9.27 -38.56,13.22c-21.85,6.63 -43.85,12.81 -65.83,19c-12.44,3.51 -24.9,6.96 -37.48,9.89c-23.25,5.43 -46.48,11.07 -69.92,15.5c-31.93,6.05 -63.95,11.76 -96.12,16.29c-30.84,4.34 -61.87,7.62 -92.92,10.19c-27.12,2.24 -54.38,2.82 -81.58,4.18c-11.88,0.59 -23.76,1.29 -36.83,2c-0.19,-5.03 -0.47,-8.88 -0.47,-12.73c-0.03,-97.99 -0.02,-195.99 -0.02,-293.98c0,-76.33 -0.13,-152.66 0.19,-228.99c0.03,-7.74 -2.42,-13.2 -7.63,-18.39c-31.66,-31.55 -63.14,-63.28 -94.78,-94.86c-83.71,-83.53 -167.48,-167 -251.22,-250.5c-9.68,-9.65 -19.2,-19.47 -29.09,-28.89c-3.7,-3.53 -5.6,-7.2 -4.95,-12.27c0.25,-1.97 0.04,-4 0.04,-6c-0.01,-331.99 -0.05,-663.97 0.11,-995.96c0,-8.58 -2.28,-14.66 -8.57,-20.89c-72.81,-72.3 -145.27,-144.95 -217.84,-217.49c-1.85,-1.86 -3.9,-3.52 -6.09,-5.48c-7.19,3.09 -14.08,6.35 -21.18,9.04c-24.03,9.07 -48.52,15.62 -74.38,17.72c-20.37,1.65 -40.66,1.73 -60.67,-0.91c-17.67,-2.33 -35.06,-7.47 -52.28,-12.42c-20.89,-6.01 -40.03,-16.39 -58.08,-28.16c-23.2,-15.11 -43.8,-33.48 -61.33,-55.13c-15.8,-19.52 -28.89,-40.7 -38.53,-63.81c-8.69,-20.82 -16.06,-42.16 -17.78,-64.96c-1.15,-15.21 -3.44,-30.45 -3.12,-45.64c0.66,-30.98 5.88,-61.19 17.32,-90.38c7.21,-18.38 15.86,-35.96 26.86,-52.03c10.26,-14.99 22.62,-28.67 35.04,-42.02c18.24,-19.6 40.47,-34.28 63.94,-46.76c24.75,-13.17 51.31,-22.12 79.03,-26.1c26.67,-3.83 53.6,-3.78 80.55,-0.81c37.69,4.16 72.09,17.18 104.33,36.56c32.62,19.61 59.58,45.43 80.95,76.72c22.8,33.4 37.69,70.4 43.19,110.47c3.06,22.29 2.99,44.87 1.09,67.59c-2.1,25.21 -9.34,48.78 -17.28,72.33c-2.53,7.51 -6.57,14.54 -10.24,21.63c-4.46,8.62 -4.63,8.57 2.55,15.76c19.79,19.81 39.6,39.59 59.41,59.36c67.46,67.35 134.87,134.74 202.49,201.92c5.25,5.23 6.62,10.71 6.61,17.75c-0.13,330.99 -0.04,661.97 -0.37,992.96c-0.01,12.27 3.26,20.79 12.13,29.51c55.84,54.91 111.04,110.47 166.42,165.85c42.05,42.04 84.02,84.16 126.11,126.17c25.87,25.83 51.85,51.54 77.88,77.21c3.54,3.48 5.8,7.14 5.37,12.25c-0.22,2.65 -0.04,5.33 -0.04,8c0,139.33 0,278.65 0,417.98c0,3.92 0,7.84 0,13.13c6.93,-0.87 12.73,-1.56 18.52,-2.34c35.19,-4.73 70.18,-10.46 105.04,-17.41c36.2,-7.21 72.07,-15.64 107.54,-25.57c30.01,-8.4 59.58,-18.46 89.13,-28.43c23.6,-7.96 47.02,-16.48 70.21,-25.54c17.01,-6.65 33.62,-14.35 50.21,-22c22.35,-10.28 44.9,-20.21 66.66,-31.64c32.62,-17.14 65.29,-34.35 96.71,-53.54c35.98,-21.97 70.62,-46.15 106.37,-69.86m-1607.27,-2094.65c-16.24,-0.19 -31.81,3.46 -46.29,10.32c-27.52,13.04 -46.79,33.75 -58.03,62.58c-7.3,18.73 -9.24,38.1 -5.52,56.71c9.33,46.56 37.36,77.27 83.9,90.28c21.66,6.05 42.93,4.44 63.43,-3.19c29.51,-10.97 51.26,-31.15 64.54,-59.97c7.07,-15.33 9.27,-31.38 9.37,-48.33c0.13,-21.58 -6.38,-40.79 -18.03,-57.97c-21.73,-32.04 -52.57,-48.87 -93.37,-50.43m1438.74,987.43c23.01,55.43 87.33,83.5 142.95,61.1c59.71,-24.06 86.42,-89.27 62.76,-146.31c-23.55,-56.78 -88.09,-84.9 -145.55,-60.35c-56.04,23.95 -84.81,86.2 -60.16,145.56z" fill="#1C75BB" id="svg_2" opacity="1"/>
  <path d="m939.6,3278.37c-31.34,-28.36 -62.54,-55.85 -92.81,-84.32c-42.69,-40.14 -82.3,-83.3 -119.42,-128.6c-26.51,-32.35 -51.9,-65.65 -76.99,-99.13c-31.12,-41.52 -58.88,-85.33 -85.33,-129.93c-24.24,-40.87 -47.06,-82.56 -67.01,-125.73c-14.91,-32.26 -29.96,-64.5 -43.67,-97.28c-16.65,-39.85 -31.45,-80.44 -44.09,-121.77c-6.71,-21.91 -13.89,-43.69 -19.74,-65.83c-7.96,-30.17 -15.47,-60.48 -22.02,-90.99c-6.19,-28.85 -11.6,-57.91 -16.03,-87.09c-5.26,-34.75 -9.38,-69.68 -13.45,-104.6c-1.8,-15.49 -2.42,-31.12 -3.33,-46.69c-2.36,-40.17 -4.53,-80.39 -3.21,-120.62c1.13,-34.48 3.89,-68.9 5.65,-103.36c2.04,-40.17 7.7,-79.92 13.65,-119.62c7.49,-49.95 17.45,-99.44 30.25,-148.28c8.32,-31.77 17.4,-63.39 27.42,-94.67c10.73,-33.5 22.22,-66.81 34.75,-99.69c10.75,-28.21 22.83,-55.97 35.41,-83.43c13.97,-30.48 28.7,-60.64 44,-90.48c11.35,-22.15 23.65,-43.85 36.41,-65.22c16.17,-27.06 32.44,-54.1 50.1,-80.18c22.52,-33.27 45.94,-65.97 69.99,-98.14c18.86,-25.22 38.87,-49.61 59.14,-73.72c16.03,-19.07 32.95,-37.4 50,-55.57c16.59,-17.67 33.43,-35.14 50.9,-51.93c23.69,-22.76 47.78,-45.13 72.26,-67.03c43.87,-39.27 90.35,-75.32 138.36,-109.35c37.65,-26.68 76.04,-52.32 116.34,-74.87c35.64,-19.93 70.97,-40.56 107.56,-58.58c38.09,-18.76 77.22,-35.53 116.49,-51.72c32.16,-13.26 64.9,-25.31 97.95,-36.2c34.96,-11.52 70.3,-22.19 106,-31.13c38.62,-9.67 77.67,-17.84 116.85,-24.98c46.37,-8.45 93.04,-15.22 140.2,-18.06c24.15,-1.45 48.25,-3.83 72.39,-5.62c5.25,-0.39 10.56,-0.06 17.05,-0.06c0,4.37 0,8.26 0,12.14c0,174 0.05,348 -0.15,522c-0.01,7.9 2.09,13.42 7.84,19.13c78.93,78.45 157.54,157.23 236.31,235.86c41.4,41.33 82.94,82.52 124.4,123.79c3.53,3.52 6.56,7.65 10.47,10.65c6.5,4.98 7.8,11.14 7.8,19.03c-0.2,317.33 -0.17,634.66 -0.17,951.99c0,17.33 0.13,34.67 -0.07,52c-0.05,4.3 1.19,7.42 4.27,10.48c34.96,34.63 69.81,69.36 104.64,104.12c27.68,27.63 55.36,55.27 82.9,83.04c10.7,10.8 21.03,21.97 31.31,32.74c64.43,-30.26 129.4,-37.11 196.36,-17.6c61.73,17.99 110.82,54.05 146.59,107.32c73.3,109.17 54.64,253.45 -35.83,340.47c-94.06,90.47 -237.6,99.27 -341.66,25.23c-104.53,-74.37 -146.81,-220.13 -77.75,-348.4c-8.82,-8.91 -17.8,-18.02 -26.83,-27.09c-14.69,-14.73 -29.39,-29.44 -44.11,-44.13c-14.02,-13.99 -28.07,-27.95 -42.12,-41.92c-20.16,-20.04 -40.34,-40.06 -60.5,-60.1c-9.2,-9.13 -18.43,-18.22 -27.55,-27.43c-20.39,-20.59 -40.68,-41.26 -61.1,-61.82c-2.96,-2.98 -5.01,-6.01 -4.4,-10.46c0.32,-2.29 0.06,-4.66 0.06,-6.99c0,-331.67 -0.04,-663.33 0.19,-994.99c0,-9.35 -2.48,-15.88 -9.25,-22.56c-50.51,-49.89 -100.51,-100.3 -150.79,-150.43c-49.15,-48.99 -98.46,-97.82 -147.66,-146.75c-24.56,-24.43 -48.92,-49.05 -73.65,-73.3c-4.55,-4.47 -5.51,-9.22 -5.51,-15.14c0.1,-140 0.08,-280 0.08,-420c0,-3.64 0,-7.29 0,-12.15c-158.29,22.64 -308.63,68.84 -451.16,139.52c-244.04,121.01 -442.32,294.9 -593.81,521.2c-133.02,198.7 -215.31,417.34 -241.96,654.9c-45.32,403.93 53.39,770.57 298.66,1095.15c246.65,326.4 586.87,500.24 878.24,561.29c0.21,-2.56 0.59,-5.04 0.59,-7.53c0.05,-27.67 -0.12,-55.33 0.15,-83c0.06,-5.79 -1.65,-10.05 -5.7,-14.05c-27.88,-27.54 -55.67,-55.18 -83.41,-82.86c-109.53,-109.34 -219,-218.73 -328.54,-328.06c-49.67,-49.57 -99.37,-99.12 -149.25,-148.47c-4.61,-4.56 -5.28,-9.39 -5.28,-15.22c0.07,-201.33 0.06,-402.66 0.06,-603.99c0,-3.66 0,-7.32 0,-11.78c-82.24,-27 -140.6,-80.36 -172.12,-161.06c-22.21,-56.86 -23.92,-115.55 -5.51,-173.78c38.77,-122.6 153.77,-198.77 281.76,-186.28c123.75,12.09 221.81,104.3 238.93,231.64c15.68,116.6 -50.45,244.87 -187.27,289.23c-0.14,2.42 -0.43,5.03 -0.43,7.65c-0.02,181.66 0.01,363.33 -0.14,544.99c-0.01,5.79 1.58,9.84 5.73,13.91c33.68,33.04 67.2,66.22 100.61,99.53c20.07,20 39.75,40.39 59.79,60.41c21.14,21.11 42.62,41.87 63.75,62.98c112.42,112.34 224.76,224.75 337.19,337.08c3.68,3.68 5.86,7.25 5.85,12.88c-0.18,110 -0.13,220 -0.15,330c0,2.25 -0.18,4.51 -0.33,7.84c-13.53,-1.16 -26.44,-1.6 -39.13,-3.48c-30.5,-4.51 -60.86,-9.98 -91.36,-14.52c-40.11,-5.98 -79.46,-15.51 -118.62,-25.59c-31.8,-8.19 -63.14,-18.25 -94.43,-28.27c-24.97,-7.99 -49.75,-16.7 -74.29,-25.93c-22.37,-8.42 -44.65,-17.25 -66.37,-27.19c-36.84,-16.85 -73.53,-34.1 -109.67,-52.39c-25.18,-12.74 -49.67,-26.94 -73.85,-41.51c-28.13,-16.96 -55.95,-34.51 -83.24,-52.81c-24.28,-16.29 -47.99,-33.51 -71.32,-51.15c-23.59,-17.84 -46.4,-36.69 -70.11,-55.54m1680.63,-627.25c-8.85,6.37 -18.94,11.57 -26.32,19.34c-28.94,30.44 -41.6,66.22 -29.3,107.75c13.28,44.83 43.63,73 89.63,80.64c45.17,7.5 82.42,-8.83 109.46,-46.13c10.82,-14.93 17.28,-31.72 19,-50.58c1.23,-13.42 0.97,-26.46 -2.19,-39.37c-5.6,-22.88 -17.67,-41.76 -35.38,-57.48c-34.34,-30.51 -84.86,-35.66 -124.9,-14.17m-1435.61,-615.44c24.75,-1.77 47.18,-9.11 66.84,-25.07c25.7,-20.86 40.01,-47.65 41.99,-80.27c2.27,-37.63 -12.14,-68.9 -41.4,-92.56c-28.93,-23.38 -62.13,-31.14 -98.27,-21.67c-60.1,15.73 -96.94,77.2 -78.84,138.93c13.71,46.72 55.57,80.1 109.68,80.64z" fill="#FEFEFE" id="svg_3" opacity="1"/>
 </g>
</svg>