<svg version="1.1" id="Layer_1" xmlns="http://www.w3.org/2000/svg" xmlns:xlink="http://www.w3.org/1999/xlink" x="0px" y="0px"
	 width="100%" viewBox="0 0 4000 4000" enable-background="new 0 0 4000 4000" xml:space="preserve">
<path fill="#000000" opacity="1.000000" stroke="none" 
	d="
M2254.000000,4002.000000 
	C1502.666626,4002.000000 752.333313,4002.000000 2.000000,4002.000000 
	C2.000000,2668.666748 2.000000,1335.333374 2.000000,2.000000 
	C1335.333374,2.000000 2668.666748,2.000000 4002.000000,2.000000 
	C4002.000000,1335.333374 4002.000000,2668.666748 4002.000000,4002.000000 
	C3419.666748,4002.000000 2837.333252,4002.000000 2254.000000,4002.000000 
M2887.747803,3224.796875 
	C2852.524414,3248.018311 2817.884766,3272.195801 2781.901367,3294.172852 
	C2750.481689,3313.362793 2717.809814,3330.572266 2685.192139,3347.707275 
	C2663.434082,3359.136963 2640.878174,3369.068848 2618.533691,3379.354980 
	C2601.936279,3386.995605 2585.329834,3394.702393 2568.324219,3401.348389 
	C2545.133789,3410.411621 2521.706055,3418.925537 2498.114014,3426.887451 
	C2468.564941,3436.859863 2438.993896,3446.919189 2408.979004,3455.322021 
	C2373.507812,3465.252686 2337.644287,3473.679688 2301.444580,3480.893311 
	C2266.577393,3487.841309 2231.590332,3493.573730 2196.395996,3498.300781 
	C2190.608887,3499.078369 2184.809814,3499.765137 2177.882568,3500.636475 
	C2177.882568,3495.353271 2177.882324,3491.432861 2177.882324,3487.512451 
	C2177.882324,3348.184814 2177.882568,3208.857422 2177.882324,3069.529785 
	C2177.882324,3066.863281 2177.695557,3064.181152 2177.918457,3061.533691 
	C2178.349365,3056.416260 2176.085205,3052.762939 2172.551025,3049.278809 
	C2146.518555,3023.614746 2120.539307,2997.895508 2094.667480,2972.069092 
	C2052.584717,2930.060059 2010.614502,2887.938477 1968.564575,2845.896484 
	C1913.179932,2790.522461 1857.979370,2734.960693 1802.139893,2680.048828 
	C1793.274414,2671.330566 1789.998901,2662.812988 1790.010986,2650.540283 
	C1790.336182,2319.554199 1790.253906,1988.567871 1790.383911,1657.581543 
	C1790.386719,1650.536377 1789.022949,1645.057739 1783.765381,1639.833496 
	C1716.149658,1572.647217 1648.737305,1505.256714 1581.277954,1437.913208 
	C1561.466675,1418.136108 1541.659302,1398.355225 1521.872925,1378.553223 
	C1514.686768,1371.361572 1514.862183,1371.406494 1519.324097,1362.786499 
	C1522.991089,1355.702393 1527.031494,1348.671997 1529.561890,1341.164673 
	C1537.500366,1317.612305 1544.735474,1294.039551 1546.842041,1268.828491 
	C1548.740479,1246.109131 1548.805908,1223.534180 1545.747192,1201.243408 
	C1540.247681,1161.165894 1525.357300,1124.167236 1502.555054,1090.774536 
	C1481.185547,1059.480103 1454.226807,1033.663818 1421.613281,1014.053955 
	C1389.372314,994.668274 1354.965454,981.648071 1317.276733,977.494568 
	C1290.330811,974.524902 1263.400391,974.465820 1236.727539,978.298828 
	C1209.012207,982.281555 1182.447266,991.225159 1157.696533,1004.396057 
	C1134.233887,1016.881470 1111.999146,1031.555664 1093.760254,1051.159058 
	C1081.342896,1064.505493 1068.982910,1078.191650 1058.720825,1093.179688 
	C1047.718384,1109.249390 1039.068726,1126.832764 1031.863525,1145.214478 
	C1020.421753,1174.404785 1015.201050,1204.607300 1014.539429,1235.594849 
	C1014.215271,1250.778564 1016.508240,1266.020508 1017.658691,1281.232910 
	C1019.382568,1304.028076 1026.754639,1325.371582 1035.436890,1346.188110 
	C1045.075684,1369.298218 1058.174927,1390.481567 1073.973267,1409.995483 
	C1091.503052,1431.648193 1112.103516,1450.016846 1135.296387,1465.130249 
	C1153.353271,1476.897095 1172.491577,1487.277588 1193.383179,1493.287720 
	C1210.597290,1498.239990 1227.990723,1503.379395 1245.664062,1505.709717 
	C1265.665771,1508.347046 1285.961060,1508.274658 1306.330811,1506.618286 
	C1332.194824,1504.515259 1356.684937,1497.971069 1380.705933,1488.895752 
	C1387.812866,1486.210693 1394.701294,1482.947754 1401.889771,1479.863892 
	C1404.076904,1481.819458 1406.127441,1483.481934 1407.984375,1485.337891 
	C1480.552734,1557.878906 1553.009644,1630.532227 1625.823120,1702.826294 
	C1632.105469,1709.063843 1634.390137,1715.138428 1634.385986,1723.722290 
	C1634.225708,2055.708496 1634.267334,2387.694580 1634.282349,2719.680908 
	C1634.282349,2721.680908 1634.494751,2723.708008 1634.241089,2725.675293 
	C1633.586304,2730.752197 1635.494385,2734.419922 1639.194824,2737.945801 
	C1649.084717,2747.370117 1658.600098,2757.186768 1668.276611,2766.835205 
	C1752.020264,2850.336182 1835.787476,2933.813232 1919.501831,3017.343750 
	C1951.142944,3048.915771 1982.620361,3080.652100 2014.283813,3112.201660 
	C2019.493896,3117.392578 2021.940796,3122.854980 2021.908691,3130.587158 
	C2021.591064,3206.916016 2021.716553,3283.246826 2021.716675,3359.576904 
	C2021.716675,3457.572754 2021.711792,3555.568848 2021.735840,3653.564697 
	C2021.736694,3657.413330 2022.015015,3661.261963 2022.209595,3666.287109 
	C2035.276245,3665.575195 2047.155518,3664.881592 2059.040039,3664.289062 
	C2086.237549,3662.933594 2113.497559,3662.352539 2140.620605,3660.109863 
	C2171.665771,3657.542969 2202.695312,3654.263184 2233.538574,3649.921143 
	C2265.706787,3645.392578 2297.729492,3639.676758 2329.655518,3633.633301 
	C2353.101562,3629.195068 2376.327393,3623.556152 2399.576416,3618.130371 
	C2412.155518,3615.195312 2424.623047,3611.747314 2437.060059,3608.244629 
	C2459.044678,3602.052490 2481.038574,3595.874756 2502.890381,3589.236084 
	C2515.883301,3585.288818 2528.658447,3580.600830 2541.450684,3576.020020 
	C2565.502930,3567.406982 2589.609863,3558.926270 2613.474609,3549.815674 
	C2629.270508,3543.785400 2644.770996,3536.950439 2660.249023,3530.124512 
	C2682.632568,3520.252686 2705.082031,3510.492188 2727.119873,3499.886475 
	C2748.612549,3489.542969 2769.759766,3478.453613 2790.806396,3467.218994 
	C2812.147705,3455.827393 2833.543945,3444.460693 2854.252441,3431.981201 
	C2878.104736,3417.606934 2901.422852,3402.316650 2924.617188,3386.888916 
	C2949.165039,3370.561035 2973.911621,3354.423828 2997.448242,3336.710938 
	C3026.011475,3315.214844 3053.672852,3292.487305 3081.206055,3269.666992 
	C3101.879639,3252.532471 3121.847656,3234.537354 3141.904785,3216.672607 
	C3151.284668,3208.318115 3160.206543,3199.442139 3169.203369,3190.666748 
	C3183.843750,3176.385254 3198.895264,3162.477295 3212.829834,3147.532227 
	C3233.387939,3125.482666 3253.479004,3102.970703 3273.101074,3080.083008 
	C3293.553711,3056.226074 3313.656982,3032.037842 3333.069336,3007.331299 
	C3346.538818,2990.187988 3358.841553,2972.102295 3371.195557,2954.114746 
	C3388.049072,2929.575439 3404.791992,2904.946289 3420.933594,2879.936768 
	C3431.730225,2863.209229 3441.644531,2845.893799 3451.508545,2828.587646 
	C3463.001465,2808.423340 3474.344482,2788.158203 3485.120605,2767.605469 
	C3493.582764,2751.466553 3501.126465,2734.843994 3508.998779,2718.398438 
	C3514.737549,2706.409424 3520.634521,2694.483643 3525.944092,2682.304443 
	C3533.101807,2665.886230 3539.848145,2649.286621 3546.613281,2632.700439 
	C3553.000488,2617.039307 3559.567871,2601.434814 3565.357666,2585.551270 
	C3572.401611,2566.226807 3578.867188,2546.686523 3585.301514,2527.146973 
	C3592.145752,2506.362549 3599.265137,2485.638672 3605.160645,2464.579346 
	C3611.946045,2440.340576 3617.832520,2415.835938 3623.534912,2391.313232 
	C3629.244385,2366.759277 3634.315186,2342.055176 3639.524414,2317.387207 
	C3641.927246,2306.009766 3644.375000,2294.619873 3646.130127,2283.132568 
	C3649.382812,2261.840576 3652.252686,2240.487793 3655.072266,2219.132568 
	C3657.588867,2200.069580 3660.131348,2181.000244 3662.072266,2161.873779 
	C3663.378662,2149.002686 3663.616943,2136.025146 3664.403809,2123.099365 
	C3666.178223,2093.957764 3668.828369,2064.838867 3669.551758,2035.672119 
	C3670.210693,2009.094482 3668.928467,1982.462280 3668.250977,1955.860474 
	C3667.853760,1940.249146 3667.277100,1924.629517 3666.231201,1909.050415 
	C3664.298096,1880.258789 3662.209961,1851.472290 3659.702148,1822.725952 
	C3658.088379,1804.230347 3656.247070,1785.710205 3653.369873,1767.379639 
	C3649.104004,1740.200928 3644.324951,1713.079712 3638.854736,1686.118652 
	C3632.525635,1654.926758 3625.438721,1623.882080 3618.221191,1592.880371 
	C3614.991943,1579.010010 3610.788330,1565.357422 3606.768311,1551.682129 
	C3600.051270,1528.833618 3593.487305,1505.929810 3586.178467,1483.268433 
	C3579.868896,1463.704590 3572.974365,1444.308716 3565.680176,1425.088379 
	C3557.208984,1402.766357 3548.181396,1380.650146 3539.076660,1358.575928 
	C3534.281982,1346.951782 3529.016113,1335.508301 3523.595947,1324.158691 
	C3514.327148,1304.751343 3504.941895,1285.395142 3495.283447,1266.179565 
	C3486.074463,1247.858521 3476.676514,1229.624268 3466.949219,1211.574097 
	C3457.679443,1194.373047 3448.053955,1177.356445 3438.247803,1160.454224 
	C3431.618408,1149.027466 3424.559570,1137.840454 3417.418213,1126.722778 
	C3405.780273,1108.604370 3394.029053,1090.556152 3382.111816,1072.620361 
	C3373.498291,1059.656616 3364.879883,1046.671753 3355.655029,1034.144531 
	C3340.720703,1013.864502 3325.450195,993.825867 3310.010742,973.926514 
	C3298.627686,959.255310 3287.077881,944.687317 3275.005127,930.584351 
	C3260.811523,914.003174 3246.060547,897.894165 3231.387695,881.728943 
	C3216.729248,865.579590 3202.505371,848.964905 3186.958984,833.707458 
	C3157.783691,805.074463 3128.065186,776.977234 3098.029053,749.246277 
	C3082.200928,734.633423 3065.393555,721.059021 3048.722656,707.388062 
	C3031.058594,692.902344 3013.322998,678.472412 2995.085693,664.725220 
	C2975.254639,649.776611 2955.032715,635.318420 2934.572754,621.240356 
	C2912.976807,606.380920 2891.163818,591.799500 2868.952148,577.884155 
	C2849.316162,565.582397 2829.124756,554.146118 2808.949707,542.732605 
	C2791.369141,532.786865 2773.662598,523.025024 2755.661377,513.871155 
	C2732.341064,502.012573 2708.782715,490.604950 2685.116455,479.449768 
	C2669.239014,471.965881 2653.075439,465.068115 2636.892822,458.257996 
	C2622.528320,452.213074 2608.010742,446.522125 2593.470703,440.907959 
	C2575.514893,433.974731 2557.618896,426.834595 2539.415039,420.609100 
	C2520.299805,414.072052 2500.951416,408.158905 2481.523926,402.607239 
	C2453.480713,394.593536 2425.420410,386.551971 2397.096680,379.630463 
	C2367.484375,372.394104 2337.554443,366.455292 2307.756104,359.983307 
	C2301.597900,358.645813 2295.451904,357.137695 2289.222656,356.260010 
	C2267.558105,353.207520 2245.856445,350.417236 2224.174316,347.488129 
	C2210.695801,345.667328 2197.235352,343.711853 2183.748291,341.960114 
	C2180.257812,341.506775 2176.697021,341.592804 2172.661377,341.407806 
	C2172.509277,344.821198 2172.320312,347.086395 2172.319824,349.351593 
	C2172.304932,459.013702 2172.356934,568.675903 2172.169189,678.337708 
	C2172.159180,684.274963 2174.245361,688.561340 2178.085205,692.464966 
	C2188.760742,703.317871 2199.361328,714.247559 2210.191895,724.944153 
	C2224.956543,739.526611 2240.052979,753.774963 2254.739258,768.434814 
	C2271.952393,785.616943 2288.730469,803.235107 2305.963135,820.397217 
	C2331.737549,846.065674 2357.892578,871.352112 2383.626221,897.061035 
	C2501.733398,1015.054382 2619.719238,1133.169312 2737.914062,1251.074463 
	C2742.595215,1255.743896 2744.439941,1260.286621 2744.434570,1266.770630 
	C2744.286133,1447.429688 2744.309326,1628.088867 2744.303711,1808.748047 
	C2744.303467,1812.024048 2744.303467,1815.300049 2744.303467,1818.264038 
	C2600.462158,1867.066162 2534.305420,2000.626343 2560.851074,2129.787354 
	C2585.281250,2248.654541 2694.606934,2351.647217 2846.399902,2340.046143 
	C2961.586426,2331.242676 3069.496338,2244.790771 3086.973877,2110.486084 
	C3103.917969,1980.276733 3033.111572,1862.943848 2899.715820,1818.105103 
	C2899.715820,1814.452637 2899.716064,1810.500488 2899.716064,1806.548462 
	C2899.714844,1605.223511 2899.653564,1403.898315 2899.934814,1202.573853 
	C2899.945801,1194.682983 2897.151367,1189.425415 2892.024658,1184.395996 
	C2872.195068,1164.942383 2852.347168,1145.506592 2832.651855,1125.917603 
	C2801.022461,1094.458374 2769.465088,1062.926270 2737.960693,1031.341919 
	C2712.732910,1006.050659 2687.720459,980.544373 2662.451660,955.294556 
	C2607.323730,900.208191 2552.106445,845.211487 2496.900635,790.203064 
	C2459.628418,753.064148 2422.379150,715.901367 2384.989502,678.880737 
	C2365.962646,660.041687 2346.648682,641.492737 2328.941650,624.251038 
	C2328.941650,589.305054 2328.940186,557.001099 2328.962402,524.697144 
	C2328.962646,524.409729 2329.236328,524.081116 2329.460938,523.847107 
	C2329.677979,523.621033 2329.996582,523.492432 2330.398682,523.240723 
	C2330.904053,523.240723 2331.569092,523.112427 2332.166504,523.259338 
	C2351.843994,528.098572 2371.711426,532.290649 2391.144775,537.969055 
	C2429.401611,549.147644 2467.596924,560.604004 2505.463379,573.025208 
	C2527.833496,580.363159 2549.760498,589.211121 2571.464844,598.379333 
	C2602.391846,611.443359 2633.062744,625.138306 2663.581299,639.134460 
	C2678.976318,646.194702 2693.807129,654.487793 2708.871826,662.264282 
	C2748.216797,682.573914 2786.412354,704.934204 2823.360840,729.256104 
	C2852.220947,748.253784 2880.074463,768.794983 2908.172119,788.933533 
	C2944.146240,814.717468 2978.411133,842.695801 3010.982422,872.613708 
	C3038.309570,897.714722 3065.176025,923.385925 3091.105957,949.919189 
	C3114.333252,973.687073 3136.529541,998.522827 3158.241943,1023.697205 
	C3192.590820,1063.522705 3224.188232,1105.527466 3253.986084,1148.870361 
	C3282.833984,1190.831421 3309.476807,1234.180420 3333.584473,1279.004883 
	C3349.173584,1307.990967 3363.734375,1337.559937 3377.899658,1367.275757 
	C3403.980713,1421.988647 3425.569336,1478.535400 3444.174072,1536.186768 
	C3461.640869,1590.313232 3476.414062,1645.210327 3487.096436,1701.090820 
	C3493.580078,1735.008545 3499.290283,1769.108032 3504.101318,1803.301147 
	C3508.215820,1832.547363 3511.344238,1861.986328 3513.466553,1891.444092 
	C3515.758057,1923.253540 3516.686523,1955.174805 3517.579102,1987.064941 
	C3517.968750,2000.989380 3516.895020,2014.962280 3516.299805,2028.905151 
	C3515.024170,2058.789307 3513.925293,2088.685547 3512.170654,2118.542236 
	C3511.100098,2136.763672 3509.833496,2155.056396 3507.099365,2173.081055 
	C3500.625732,2215.758057 3494.289551,2258.506592 3485.876709,2300.824219 
	C3478.495850,2337.953369 3469.242188,2374.778320 3459.175049,2411.284912 
	C3450.879395,2441.367188 3440.644043,2470.947754 3430.406250,2500.451660 
	C3421.477783,2526.182373 3411.808350,2551.682373 3401.604004,2576.936035 
	C3393.014648,2598.191895 3383.676758,2619.181885 3373.775879,2639.861816 
	C3362.140625,2664.165527 3350.069092,2688.294678 3337.210449,2711.969238 
	C3324.060547,2736.179688 3309.987305,2759.903320 3295.832520,2783.549316 
	C3284.393066,2802.659424 3273.052490,2821.918457 3260.209473,2840.079834 
	C3237.774658,2871.804199 3215.080322,2903.421631 3190.894043,2933.809814 
	C3165.885498,2965.230469 3139.412598,2995.527100 3112.724609,3025.554688 
	C3096.925537,3043.330322 3079.573486,3059.737793 3062.735107,3076.575684 
	C3030.299072,3109.010986 2996.473877,3139.910645 2960.300049,3168.169678 
	C2936.498535,3186.762939 2912.632080,3205.273193 2887.747803,3224.796875 
M940.155029,3278.813232 
	C963.306702,3297.219482 986.119934,3316.072998 1009.705688,3333.905273 
	C1033.040039,3351.546875 1056.746582,3368.765381 1081.034790,3385.058594 
	C1108.316406,3403.360107 1136.138428,3420.905273 1164.274780,3437.868408 
	C1188.451294,3452.444336 1212.944214,3466.641113 1238.118774,3479.382080 
	C1274.259033,3497.673096 1310.949585,3514.917969 1347.787720,3531.773193 
	C1369.512695,3541.713623 1391.788086,3550.540039 1414.158325,3558.957031 
	C1438.703247,3568.192383 1463.475220,3576.902344 1488.451538,3584.894287 
	C1519.744019,3594.906982 1551.082642,3604.973389 1582.879395,3613.160889 
	C1622.042114,3623.244629 1661.394897,3632.770752 1701.498901,3638.746826 
	C1731.996460,3643.291504 1762.356323,3648.761963 1792.858765,3653.269531 
	C1805.552490,3655.145264 1818.457764,3655.589111 1831.988403,3656.745850 
	C1832.135254,3653.416992 1832.321289,3651.164307 1832.321533,3648.911621 
	C1832.336060,3538.912354 1832.286255,3428.913330 1832.474731,3318.914307 
	C1832.484375,3313.278320 1830.302856,3309.709961 1826.616211,3306.026611 
	C1714.187134,3193.702637 1601.845093,3081.291504 1489.429199,2968.954346 
	C1468.300171,2947.839600 1446.816528,2927.079590 1425.681885,2905.970459 
	C1405.635986,2885.948975 1385.961182,2865.555664 1365.894287,2845.555664 
	C1332.482178,2812.254395 1298.955811,2779.066650 1265.281738,2746.030518 
	C1261.134033,2741.961182 1259.544434,2737.908203 1259.549072,2732.121338 
	C1259.696777,2550.456055 1259.668213,2368.790527 1259.689209,2187.125244 
	C1259.689575,2184.514160 1259.977905,2181.903076 1260.120605,2179.479980 
	C1396.935425,2135.120117 1463.067261,2006.852539 1447.387817,1890.245239 
	C1430.265503,1762.906860 1332.210693,1670.696411 1208.461060,1658.614258 
	C1080.468140,1646.117554 965.467285,1722.288086 926.702332,1844.889771 
	C908.289612,1903.123535 909.998901,1961.807983 932.210693,2018.672241 
	C963.732544,2099.371338 1022.087036,2152.727783 1104.329834,2179.726318 
	C1104.329834,2184.194092 1104.329834,2187.851562 1104.329834,2191.509277 
	C1104.329834,2392.841064 1104.341797,2594.173096 1104.270264,2795.504883 
	C1104.268188,2801.333496 1104.935547,2806.162598 1109.545288,2810.722900 
	C1159.433228,2860.074219 1209.131470,2909.617676 1258.799194,2959.191162 
	C1368.335815,3068.520020 1477.813721,3177.907715 1587.341553,3287.245117 
	C1615.077271,3314.932617 1642.867920,3342.565430 1670.747803,3370.107422 
	C1674.800781,3374.111328 1676.509521,3378.370117 1676.452393,3384.162598 
	C1676.179199,3411.826416 1676.345215,3439.494385 1676.302856,3467.160889 
	C1676.299072,3469.647705 1675.922852,3472.134033 1675.713501,3474.694824 
	C1384.342163,3413.636963 1044.122314,3239.804199 797.471497,2913.403076 
	C552.195679,2588.821777 453.488556,2222.179688 498.805420,1818.253662 
	C525.458191,1580.687866 607.753845,1362.051025 740.772095,1163.347534 
	C892.260742,937.052734 1090.544434,763.158752 1334.575317,642.149902 
	C1477.109497,571.470886 1627.449585,525.274963 1785.739746,502.630768 
	C1785.739746,507.492676 1785.739746,511.138611 1785.739746,514.784546 
	C1785.739746,654.783569 1785.762939,794.782532 1785.659912,934.781494 
	C1785.655640,940.704224 1786.617554,945.449158 1791.173096,949.918335 
	C1815.896484,974.173950 1840.262695,998.793213 1864.820679,1023.218201 
	C1914.023071,1072.154297 1963.333984,1120.981445 2012.480835,1169.973389 
	C2062.763184,1220.097290 2112.760742,1270.508911 2163.274658,1320.397949 
	C2170.039795,1327.079346 2172.522461,1333.614868 2172.516113,1342.955688 
	C2172.293457,1674.619995 2172.329590,2006.284302 2172.329590,2337.948730 
	C2172.329590,2340.281982 2172.589355,2342.650879 2172.274414,2344.940918 
	C2171.662842,2349.388428 2173.709229,2352.420654 2176.670166,2355.402344 
	C2197.085693,2375.958984 2217.381348,2396.634521 2237.769043,2417.218994 
	C2246.888184,2426.426025 2256.124756,2435.516602 2265.317383,2444.650879 
	C2285.482178,2464.688232 2305.657471,2484.714600 2325.820068,2504.754150 
	C2339.869385,2518.717773 2353.921631,2532.678955 2367.942627,2546.671143 
	C2382.663574,2561.361816 2397.363281,2576.073730 2412.045166,2590.803467 
	C2421.078857,2599.866943 2430.062500,2608.980225 2438.884766,2617.885498 
	C2369.816650,2746.160156 2412.102051,2891.916016 2516.626465,2966.285645 
	C2620.687500,3040.325928 2764.229492,3031.529297 2858.288574,2941.058838 
	C2948.755859,2854.043213 2967.415283,2709.758301 2894.118408,2600.586670 
	C2858.354248,2547.317871 2809.263916,2511.257080 2747.531982,2493.272705 
	C2680.566895,2473.763672 2615.599609,2480.614014 2551.172363,2510.873047 
	C2540.887939,2500.096680 2530.563721,2488.926514 2519.860352,2478.132568 
	C2492.318848,2450.358398 2464.644043,2422.716309 2436.958496,2395.085449 
	C2402.132568,2360.328125 2367.276855,2325.600098 2332.322998,2290.971436 
	C2329.236328,2287.913574 2328.003662,2284.791992 2328.052002,2280.488037 
	C2328.245850,2263.156982 2328.115967,2245.822754 2328.115967,2228.489502 
	C2328.116943,1911.158325 2328.091064,1593.827271 2328.286621,1276.496216 
	C2328.291504,1268.606812 2326.994629,1262.449585 2320.494385,1257.471069 
	C2316.581055,1254.473999 2313.554932,1250.337402 2310.022461,1246.821289 
	C2268.561035,1205.551147 2227.016602,1164.364136 2185.615967,1123.032837 
	C2106.854004,1044.403198 2028.243652,965.621582 1949.306030,887.169189 
	C1943.560547,881.459106 1941.457275,875.944153 1941.466431,868.041016 
	C1941.667114,694.042480 1941.619873,520.043640 1941.619873,346.044861 
	C1941.619873,342.158508 1941.619751,338.272125 1941.619751,333.903290 
	C1935.132690,333.903290 1929.824463,333.570465 1924.569824,333.960297 
	C1900.432129,335.751038 1876.332520,338.129456 1852.176392,339.581787 
	C1805.019531,342.416992 1758.349243,349.193695 1711.977905,357.641266 
	C1672.803589,364.777740 1633.746094,372.951660 1595.126953,382.623352 
	C1559.427979,391.563690 1524.091064,402.226410 1489.128174,413.749664 
	C1456.084473,424.640350 1423.344971,436.691650 1391.179688,449.950012 
	C1351.907959,466.137573 1312.780884,482.910767 1274.692261,501.666473 
	C1238.095459,519.687622 1202.765381,540.315002 1167.132812,560.251709 
	C1126.825806,582.803894 1088.438232,608.444031 1050.791870,635.123474 
	C1002.781006,669.148071 956.300232,705.203796 912.426453,744.466125 
	C887.946960,766.372803 863.861267,788.742798 840.170959,811.500427 
	C822.698120,828.285339 805.859497,845.760437 789.274475,863.431213 
	C772.224365,881.597534 755.300903,899.933960 739.272644,918.995300 
	C718.999084,943.105286 698.990845,967.503113 680.132690,992.722412 
	C656.075500,1024.894409 632.664795,1057.593628 610.141602,1090.855225 
	C592.481689,1116.935059 576.205017,1143.982666 560.043152,1171.035889 
	C547.276855,1192.405518 534.980347,1214.110107 523.626648,1236.256348 
	C508.328827,1266.095947 493.598145,1296.255737 479.629761,1326.739014 
	C467.046509,1354.199463 454.966614,1381.956299 444.215851,1410.173462 
	C431.690582,1443.047974 420.198822,1476.356079 409.469574,1509.863647 
	C399.453949,1541.142456 390.374176,1572.758789 382.048798,1604.532104 
	C369.250854,1653.374634 359.289520,1702.859131 351.803650,1752.805786 
	C345.852356,1792.513550 340.193512,1832.259766 338.145813,1872.428833 
	C336.389099,1906.890015 333.630981,1941.311768 332.500061,1975.789917 
	C331.180450,2016.021362 333.353668,2056.235352 335.705811,2096.406494 
	C336.617920,2111.983887 337.235626,2127.613525 339.041138,2143.096436 
	C343.113251,2178.016113 347.226379,2212.952637 352.494141,2247.704834 
	C356.916290,2276.878418 362.334320,2305.942139 368.522980,2334.794922 
	C375.065277,2365.296143 382.580078,2395.611328 390.542847,2425.777588 
	C396.386444,2447.915527 403.573669,2469.702148 410.275848,2491.610352 
	C422.919891,2532.941406 437.716827,2573.533936 454.374725,2613.376709 
	C468.081360,2646.160400 483.128387,2678.395264 498.041016,2710.660889 
	C517.991333,2753.826416 540.806519,2795.515625 565.050781,2836.387695 
	C591.504700,2880.985352 619.256653,2924.804932 650.375977,2966.320312 
	C675.469116,2999.796387 700.855286,3033.101807 727.369629,3065.451416 
	C764.494568,3110.747314 804.099121,3153.905762 846.787048,3194.052246 
	C877.059204,3222.521729 908.256470,3250.007568 940.155029,3278.813232 
z"/>
<path fill="#1C75BB" opacity="1.000000" stroke="none" 
	d="
M2888.271240,3224.308594 
	C2912.632080,3205.273193 2936.498535,3186.762939 2960.300049,3168.169678 
	C2996.473877,3139.910645 3030.299072,3109.010986 3062.735107,3076.575684 
	C3079.573486,3059.737793 3096.925537,3043.330322 3112.724609,3025.554688 
	C3139.412598,2995.527100 3165.885498,2965.230469 3190.894043,2933.809814 
	C3215.080322,2903.421631 3237.774658,2871.804199 3260.209473,2840.079834 
	C3273.052490,2821.918457 3284.393066,2802.659424 3295.832520,2783.549316 
	C3309.987305,2759.903320 3324.060547,2736.179688 3337.210449,2711.969238 
	C3350.069092,2688.294678 3362.140625,2664.165527 3373.775879,2639.861816 
	C3383.676758,2619.181885 3393.014648,2598.191895 3401.604004,2576.936035 
	C3411.808350,2551.682373 3421.477783,2526.182373 3430.406250,2500.451660 
	C3440.644043,2470.947754 3450.879395,2441.367188 3459.175049,2411.284912 
	C3469.242188,2374.778320 3478.495850,2337.953369 3485.876709,2300.824219 
	C3494.289551,2258.506592 3500.625732,2215.758057 3507.099365,2173.081055 
	C3509.833496,2155.056396 3511.100098,2136.763672 3512.170654,2118.542236 
	C3513.925293,2088.685547 3515.024170,2058.789307 3516.299805,2028.905151 
	C3516.895020,2014.962280 3517.968750,2000.989380 3517.579102,1987.064941 
	C3516.686523,1955.174805 3515.758057,1923.253540 3513.466553,1891.444092 
	C3511.344238,1861.986328 3508.215820,1832.547363 3504.101318,1803.301147 
	C3499.290283,1769.108032 3493.580078,1735.008545 3487.096436,1701.090820 
	C3476.414062,1645.210327 3461.640869,1590.313232 3444.174072,1536.186768 
	C3425.569336,1478.535400 3403.980713,1421.988647 3377.899658,1367.275757 
	C3363.734375,1337.559937 3349.173584,1307.990967 3333.584473,1279.004883 
	C3309.476807,1234.180420 3282.833984,1190.831421 3253.986084,1148.870361 
	C3224.188232,1105.527466 3192.590820,1063.522705 3158.241943,1023.697205 
	C3136.529541,998.522827 3114.333252,973.687073 3091.105957,949.919189 
	C3065.176025,923.385925 3038.309570,897.714722 3010.982422,872.613708 
	C2978.411133,842.695801 2944.146240,814.717468 2908.172119,788.933533 
	C2880.074463,768.794983 2852.220947,748.253784 2823.360840,729.256104 
	C2786.412354,704.934204 2748.216797,682.573914 2708.871826,662.264282 
	C2693.807129,654.487793 2678.976318,646.194702 2663.581299,639.134460 
	C2633.062744,625.138306 2602.391846,611.443359 2571.464844,598.379333 
	C2549.760498,589.211121 2527.833496,580.363159 2505.463379,573.025208 
	C2467.596924,560.604004 2429.401611,549.147644 2391.144775,537.969055 
	C2371.711426,532.290649 2351.843994,528.098572 2332.166504,523.259338 
	C2331.569092,523.112427 2330.904053,523.240723 2330.398682,523.240723 
	C2329.996582,523.492432 2329.677979,523.621033 2329.460938,523.847107 
	C2329.236328,524.081116 2328.962646,524.409729 2328.962402,524.697144 
	C2328.940186,557.001099 2328.941650,589.305054 2328.941650,624.251038 
	C2346.648682,641.492737 2365.962646,660.041687 2384.989502,678.880737 
	C2422.379150,715.901367 2459.628418,753.064148 2496.900635,790.203064 
	C2552.106445,845.211487 2607.323730,900.208191 2662.451660,955.294556 
	C2687.720459,980.544373 2712.732910,1006.050659 2737.960693,1031.341919 
	C2769.465088,1062.926270 2801.022461,1094.458374 2832.651855,1125.917603 
	C2852.347168,1145.506592 2872.195068,1164.942383 2892.024658,1184.395996 
	C2897.151367,1189.425415 2899.945801,1194.682983 2899.934814,1202.573853 
	C2899.653564,1403.898315 2899.714844,1605.223511 2899.716064,1806.548462 
	C2899.716064,1810.500488 2899.715820,1814.452637 2899.715820,1818.105103 
	C3033.111572,1862.943848 3103.917969,1980.276733 3086.973877,2110.486084 
	C3069.496338,2244.790771 2961.586426,2331.242676 2846.399902,2340.046143 
	C2694.606934,2351.647217 2585.281250,2248.654541 2560.851074,2129.787354 
	C2534.305420,2000.626343 2600.462158,1867.066162 2744.303467,1818.264038 
	C2744.303467,1815.300049 2744.303467,1812.024048 2744.303711,1808.748047 
	C2744.309326,1628.088867 2744.286133,1447.429688 2744.434570,1266.770630 
	C2744.439941,1260.286621 2742.595215,1255.743896 2737.914062,1251.074463 
	C2619.719238,1133.169312 2501.733398,1015.054382 2383.626221,897.061035 
	C2357.892578,871.352112 2331.737549,846.065674 2305.963135,820.397217 
	C2288.730469,803.235107 2271.952393,785.616943 2254.739258,768.434814 
	C2240.052979,753.774963 2224.956543,739.526611 2210.191895,724.944153 
	C2199.361328,714.247559 2188.760742,703.317871 2178.085205,692.464966 
	C2174.245361,688.561340 2172.159180,684.274963 2172.169189,678.337708 
	C2172.356934,568.675903 2172.304932,459.013702 2172.319824,349.351593 
	C2172.320312,347.086395 2172.509277,344.821198 2172.661377,341.407806 
	C2176.697021,341.592804 2180.257812,341.506775 2183.748291,341.960114 
	C2197.235352,343.711853 2210.695801,345.667328 2224.174316,347.488129 
	C2245.856445,350.417236 2267.558105,353.207520 2289.222656,356.260010 
	C2295.451904,357.137695 2301.597900,358.645813 2307.756104,359.983307 
	C2337.554443,366.455292 2367.484375,372.394104 2397.096680,379.630463 
	C2425.420410,386.551971 2453.480713,394.593536 2481.523926,402.607239 
	C2500.951416,408.158905 2520.299805,414.072052 2539.415039,420.609100 
	C2557.618896,426.834595 2575.514893,433.974731 2593.470703,440.907959 
	C2608.010742,446.522125 2622.528320,452.213074 2636.892822,458.257996 
	C2653.075439,465.068115 2669.239014,471.965881 2685.116455,479.449768 
	C2708.782715,490.604950 2732.341064,502.012573 2755.661377,513.871155 
	C2773.662598,523.025024 2791.369141,532.786865 2808.949707,542.732605 
	C2829.124756,554.146118 2849.316162,565.582397 2868.952148,577.884155 
	C2891.163818,591.799500 2912.976807,606.380920 2934.572754,621.240356 
	C2955.032715,635.318420 2975.254639,649.776611 2995.085693,664.725220 
	C3013.322998,678.472412 3031.058594,692.902344 3048.722656,707.388062 
	C3065.393555,721.059021 3082.200928,734.633423 3098.029053,749.246277 
	C3128.065186,776.977234 3157.783691,805.074463 3186.958984,833.707458 
	C3202.505371,848.964905 3216.729248,865.579590 3231.387695,881.728943 
	C3246.060547,897.894165 3260.811523,914.003174 3275.005127,930.584351 
	C3287.077881,944.687317 3298.627686,959.255310 3310.010742,973.926514 
	C3325.450195,993.825867 3340.720703,1013.864502 3355.655029,1034.144531 
	C3364.879883,1046.671753 3373.498291,1059.656616 3382.111816,1072.620361 
	C3394.029053,1090.556152 3405.780273,1108.604370 3417.418213,1126.722778 
	C3424.559570,1137.840454 3431.618408,1149.027466 3438.247803,1160.454224 
	C3448.053955,1177.356445 3457.679443,1194.373047 3466.949219,1211.574097 
	C3476.676514,1229.624268 3486.074463,1247.858521 3495.283447,1266.179565 
	C3504.941895,1285.395142 3514.327148,1304.751343 3523.595947,1324.158691 
	C3529.016113,1335.508301 3534.281982,1346.951782 3539.076660,1358.575928 
	C3548.181396,1380.650146 3557.208984,1402.766357 3565.680176,1425.088379 
	C3572.974365,1444.308716 3579.868896,1463.704590 3586.178467,1483.268433 
	C3593.487305,1505.929810 3600.051270,1528.833618 3606.768311,1551.682129 
	C3610.788330,1565.357422 3614.991943,1579.010010 3618.221191,1592.880371 
	C3625.438721,1623.882080 3632.525635,1654.926758 3638.854736,1686.118652 
	C3644.324951,1713.079712 3649.104004,1740.200928 3653.369873,1767.379639 
	C3656.247070,1785.710205 3658.088379,1804.230347 3659.702148,1822.725952 
	C3662.209961,1851.472290 3664.298096,1880.258789 3666.231201,1909.050415 
	C3667.277100,1924.629517 3667.853760,1940.249146 3668.250977,1955.860474 
	C3668.928467,1982.462280 3670.210693,2009.094482 3669.551758,2035.672119 
	C3668.828369,2064.838867 3666.178223,2093.957764 3664.403809,2123.099365 
	C3663.616943,2136.025146 3663.378662,2149.002686 3662.072266,2161.873779 
	C3660.131348,2181.000244 3657.588867,2200.069580 3655.072266,2219.132568 
	C3652.252686,2240.487793 3649.382812,2261.840576 3646.130127,2283.132568 
	C3644.375000,2294.619873 3641.927246,2306.009766 3639.524414,2317.387207 
	C3634.315186,2342.055176 3629.244385,2366.759277 3623.534912,2391.313232 
	C3617.832520,2415.835938 3611.946045,2440.340576 3605.160645,2464.579346 
	C3599.265137,2485.638672 3592.145752,2506.362549 3585.301514,2527.146973 
	C3578.867188,2546.686523 3572.401611,2566.226807 3565.357666,2585.551270 
	C3559.567871,2601.434814 3553.000488,2617.039307 3546.613281,2632.700439 
	C3539.848145,2649.286621 3533.101807,2665.886230 3525.944092,2682.304443 
	C3520.634521,2694.483643 3514.737549,2706.409424 3508.998779,2718.398438 
	C3501.126465,2734.843994 3493.582764,2751.466553 3485.120605,2767.605469 
	C3474.344482,2788.158203 3463.001465,2808.423340 3451.508545,2828.587646 
	C3441.644531,2845.893799 3431.730225,2863.209229 3420.933594,2879.936768 
	C3404.791992,2904.946289 3388.049072,2929.575439 3371.195557,2954.114746 
	C3358.841553,2972.102295 3346.538818,2990.187988 3333.069336,3007.331299 
	C3313.656982,3032.037842 3293.553711,3056.226074 3273.101074,3080.083008 
	C3253.479004,3102.970703 3233.387939,3125.482666 3212.829834,3147.532227 
	C3198.895264,3162.477295 3183.843750,3176.385254 3169.203369,3190.666748 
	C3160.206543,3199.442139 3151.284668,3208.318115 3141.904785,3216.672607 
	C3121.847656,3234.537354 3101.879639,3252.532471 3081.206055,3269.666992 
	C3053.672852,3292.487305 3026.011475,3315.214844 2997.448242,3336.710938 
	C2973.911621,3354.423828 2949.165039,3370.561035 2924.617188,3386.888916 
	C2901.422852,3402.316650 2878.104736,3417.606934 2854.252441,3431.981201 
	C2833.543945,3444.460693 2812.147705,3455.827393 2790.806396,3467.218994 
	C2769.759766,3478.453613 2748.612549,3489.542969 2727.119873,3499.886475 
	C2705.082031,3510.492188 2682.632568,3520.252686 2660.249023,3530.124512 
	C2644.770996,3536.950439 2629.270508,3543.785400 2613.474609,3549.815674 
	C2589.609863,3558.926270 2565.502930,3567.406982 2541.450684,3576.020020 
	C2528.658447,3580.600830 2515.883301,3585.288818 2502.890381,3589.236084 
	C2481.038574,3595.874756 2459.044678,3602.052490 2437.060059,3608.244629 
	C2424.623047,3611.747314 2412.155518,3615.195312 2399.576416,3618.130371 
	C2376.327393,3623.556152 2353.101562,3629.195068 2329.655518,3633.633301 
	C2297.729492,3639.676758 2265.706787,3645.392578 2233.538574,3649.921143 
	C2202.695312,3654.263184 2171.665771,3657.542969 2140.620605,3660.109863 
	C2113.497559,3662.352539 2086.237549,3662.933594 2059.040039,3664.289062 
	C2047.155518,3664.881592 2035.276245,3665.575195 2022.209595,3666.287109 
	C2022.015015,3661.261963 2021.736694,3657.413330 2021.735840,3653.564697 
	C2021.711792,3555.568848 2021.716675,3457.572754 2021.716675,3359.576904 
	C2021.716553,3283.246826 2021.591064,3206.916016 2021.908691,3130.587158 
	C2021.940796,3122.854980 2019.493896,3117.392578 2014.283813,3112.201660 
	C1982.620361,3080.652100 1951.142944,3048.915771 1919.501831,3017.343750 
	C1835.787476,2933.813232 1752.020264,2850.336182 1668.276611,2766.835205 
	C1658.600098,2757.186768 1649.084717,2747.370117 1639.194824,2737.945801 
	C1635.494385,2734.419922 1633.586304,2730.752197 1634.241089,2725.675293 
	C1634.494751,2723.708008 1634.282349,2721.680908 1634.282349,2719.680908 
	C1634.267334,2387.694580 1634.225708,2055.708496 1634.385986,1723.722290 
	C1634.390137,1715.138428 1632.105469,1709.063843 1625.823120,1702.826294 
	C1553.009644,1630.532227 1480.552734,1557.878906 1407.984375,1485.337891 
	C1406.127441,1483.481934 1404.076904,1481.819458 1401.889771,1479.863892 
	C1394.701294,1482.947754 1387.812866,1486.210693 1380.705933,1488.895752 
	C1356.684937,1497.971069 1332.194824,1504.515259 1306.330811,1506.618286 
	C1285.961060,1508.274658 1265.665771,1508.347046 1245.664062,1505.709717 
	C1227.990723,1503.379395 1210.597290,1498.239990 1193.383179,1493.287720 
	C1172.491577,1487.277588 1153.353271,1476.897095 1135.296387,1465.130249 
	C1112.103516,1450.016846 1091.503052,1431.648193 1073.973267,1409.995483 
	C1058.174927,1390.481567 1045.075684,1369.298218 1035.436890,1346.188110 
	C1026.754639,1325.371582 1019.382568,1304.028076 1017.658691,1281.232910 
	C1016.508240,1266.020508 1014.215271,1250.778564 1014.539429,1235.594849 
	C1015.201050,1204.607300 1020.421753,1174.404785 1031.863525,1145.214478 
	C1039.068726,1126.832764 1047.718384,1109.249390 1058.720825,1093.179688 
	C1068.982910,1078.191650 1081.342896,1064.505493 1093.760254,1051.159058 
	C1111.999146,1031.555664 1134.233887,1016.881470 1157.696533,1004.396057 
	C1182.447266,991.225159 1209.012207,982.281555 1236.727539,978.298828 
	C1263.400391,974.465820 1290.330811,974.524902 1317.276733,977.494568 
	C1354.965454,981.648071 1389.372314,994.668274 1421.613281,1014.053955 
	C1454.226807,1033.663818 1481.185547,1059.480103 1502.555054,1090.774536 
	C1525.357300,1124.167236 1540.247681,1161.165894 1545.747192,1201.243408 
	C1548.805908,1223.534180 1548.740479,1246.109131 1546.842041,1268.828491 
	C1544.735474,1294.039551 1537.500366,1317.612305 1529.561890,1341.164673 
	C1527.031494,1348.671997 1522.991089,1355.702393 1519.324097,1362.786499 
	C1514.862183,1371.406494 1514.686768,1371.361572 1521.872925,1378.553223 
	C1541.659302,1398.355225 1561.466675,1418.136108 1581.277954,1437.913208 
	C1648.737305,1505.256714 1716.149658,1572.647217 1783.765381,1639.833496 
	C1789.022949,1645.057739 1790.386719,1650.536377 1790.383911,1657.581543 
	C1790.253906,1988.567871 1790.336182,2319.554199 1790.010986,2650.540283 
	C1789.998901,2662.812988 1793.274414,2671.330566 1802.139893,2680.048828 
	C1857.979370,2734.960693 1913.179932,2790.522461 1968.564575,2845.896484 
	C2010.614502,2887.938477 2052.584717,2930.060059 2094.667480,2972.069092 
	C2120.539307,2997.895508 2146.518555,3023.614746 2172.551025,3049.278809 
	C2176.085205,3052.762939 2178.349365,3056.416260 2177.918457,3061.533691 
	C2177.695557,3064.181152 2177.882324,3066.863281 2177.882324,3069.529785 
	C2177.882568,3208.857422 2177.882324,3348.184814 2177.882324,3487.512451 
	C2177.882324,3491.432861 2177.882568,3495.353271 2177.882568,3500.636475 
	C2184.809814,3499.765137 2190.608887,3499.078369 2196.395996,3498.300781 
	C2231.590332,3493.573730 2266.577393,3487.841309 2301.444580,3480.893311 
	C2337.644287,3473.679688 2373.507812,3465.252686 2408.979004,3455.322021 
	C2438.993896,3446.919189 2468.564941,3436.859863 2498.114014,3426.887451 
	C2521.706055,3418.925537 2545.133789,3410.411621 2568.324219,3401.348389 
	C2585.329834,3394.702393 2601.936279,3386.995605 2618.533691,3379.354980 
	C2640.878174,3369.068848 2663.434082,3359.136963 2685.192139,3347.707275 
	C2717.809814,3330.572266 2750.481689,3313.362793 2781.901367,3294.172852 
	C2817.884766,3272.195801 2852.524414,3248.018311 2888.271240,3224.308594 
M1281.004761,1129.655273 
	C1264.764771,1129.473145 1249.193848,1133.123169 1234.710571,1139.984741 
	C1207.186035,1153.024658 1187.915405,1173.726685 1176.680542,1202.556885 
	C1169.381714,1221.286987 1167.436646,1240.661133 1171.163696,1259.273315 
	C1180.485962,1305.827881 1208.518433,1336.541748 1255.057861,1349.549194 
	C1276.715332,1355.602295 1297.993530,1353.985718 1318.493408,1346.360596 
	C1347.995483,1335.386963 1369.750610,1315.212280 1383.031494,1286.394287 
	C1390.096558,1271.063477 1392.299561,1255.006958 1392.399536,1238.057129 
	C1392.526611,1216.483521 1386.021729,1197.272217 1374.369141,1180.088745 
	C1352.641602,1148.048096 1321.804077,1131.219971 1281.004761,1129.655273 
M2719.742432,2117.093506 
	C2742.745605,2172.524414 2807.074463,2200.594482 2862.690430,2178.188477 
	C2922.404541,2154.131592 2949.108154,2088.922363 2925.448242,2031.877686 
	C2901.897705,1975.097778 2837.364990,1946.979858 2779.901367,1971.533203 
	C2723.862549,1995.477295 2695.093018,2057.728760 2719.742432,2117.093506 
z"/>
<path fill="#FEFEFE" opacity="1.000000" stroke="none" 
	d="
M939.597900,3278.373047 
	C908.256470,3250.007568 877.059204,3222.521729 846.787048,3194.052246 
	C804.099121,3153.905762 764.494568,3110.747314 727.369629,3065.451416 
	C700.855286,3033.101807 675.469116,2999.796387 650.375977,2966.320312 
	C619.256653,2924.804932 591.504700,2880.985352 565.050781,2836.387695 
	C540.806519,2795.515625 517.991333,2753.826416 498.041016,2710.660889 
	C483.128387,2678.395264 468.081360,2646.160400 454.374725,2613.376709 
	C437.716827,2573.533936 422.919891,2532.941406 410.275848,2491.610352 
	C403.573669,2469.702148 396.386444,2447.915527 390.542847,2425.777588 
	C382.580078,2395.611328 375.065277,2365.296143 368.522980,2334.794922 
	C362.334320,2305.942139 356.916290,2276.878418 352.494141,2247.704834 
	C347.226379,2212.952637 343.113251,2178.016113 339.041138,2143.096436 
	C337.235626,2127.613525 336.617920,2111.983887 335.705811,2096.406494 
	C333.353668,2056.235352 331.180450,2016.021362 332.500061,1975.789917 
	C333.630981,1941.311768 336.389099,1906.890015 338.145813,1872.428833 
	C340.193512,1832.259766 345.852356,1792.513550 351.803650,1752.805786 
	C359.289520,1702.859131 369.250854,1653.374634 382.048798,1604.532104 
	C390.374176,1572.758789 399.453949,1541.142456 409.469574,1509.863647 
	C420.198822,1476.356079 431.690582,1443.047974 444.215851,1410.173462 
	C454.966614,1381.956299 467.046509,1354.199463 479.629761,1326.739014 
	C493.598145,1296.255737 508.328827,1266.095947 523.626648,1236.256348 
	C534.980347,1214.110107 547.276855,1192.405518 560.043152,1171.035889 
	C576.205017,1143.982666 592.481689,1116.935059 610.141602,1090.855225 
	C632.664795,1057.593628 656.075500,1024.894409 680.132690,992.722412 
	C698.990845,967.503113 718.999084,943.105286 739.272644,918.995300 
	C755.300903,899.933960 772.224365,881.597534 789.274475,863.431213 
	C805.859497,845.760437 822.698120,828.285339 840.170959,811.500427 
	C863.861267,788.742798 887.946960,766.372803 912.426453,744.466125 
	C956.300232,705.203796 1002.781006,669.148071 1050.791870,635.123474 
	C1088.438232,608.444031 1126.825806,582.803894 1167.132812,560.251709 
	C1202.765381,540.315002 1238.095459,519.687622 1274.692261,501.666473 
	C1312.780884,482.910767 1351.907959,466.137573 1391.179688,449.950012 
	C1423.344971,436.691650 1456.084473,424.640350 1489.128174,413.749664 
	C1524.091064,402.226410 1559.427979,391.563690 1595.126953,382.623352 
	C1633.746094,372.951660 1672.803589,364.777740 1711.977905,357.641266 
	C1758.349243,349.193695 1805.019531,342.416992 1852.176392,339.581787 
	C1876.332520,338.129456 1900.432129,335.751038 1924.569824,333.960297 
	C1929.824463,333.570465 1935.132690,333.903290 1941.619751,333.903290 
	C1941.619751,338.272125 1941.619873,342.158508 1941.619873,346.044861 
	C1941.619873,520.043640 1941.667114,694.042480 1941.466431,868.041016 
	C1941.457275,875.944153 1943.560547,881.459106 1949.306030,887.169189 
	C2028.243652,965.621582 2106.854004,1044.403198 2185.615967,1123.032837 
	C2227.016602,1164.364136 2268.561035,1205.551147 2310.022461,1246.821289 
	C2313.554932,1250.337402 2316.581055,1254.473999 2320.494385,1257.471069 
	C2326.994629,1262.449585 2328.291504,1268.606812 2328.286621,1276.496216 
	C2328.091064,1593.827271 2328.116943,1911.158325 2328.115967,2228.489502 
	C2328.115967,2245.822754 2328.245850,2263.156982 2328.052002,2280.488037 
	C2328.003662,2284.791992 2329.236328,2287.913574 2332.322998,2290.971436 
	C2367.276855,2325.600098 2402.132568,2360.328125 2436.958496,2395.085449 
	C2464.644043,2422.716309 2492.318848,2450.358398 2519.860352,2478.132568 
	C2530.563721,2488.926514 2540.887939,2500.096680 2551.172363,2510.873047 
	C2615.599609,2480.614014 2680.566895,2473.763672 2747.531982,2493.272705 
	C2809.263916,2511.257080 2858.354248,2547.317871 2894.118408,2600.586670 
	C2967.415283,2709.758301 2948.755859,2854.043213 2858.288574,2941.058838 
	C2764.229492,3031.529297 2620.687500,3040.325928 2516.626465,2966.285645 
	C2412.102051,2891.916016 2369.816650,2746.160156 2438.884766,2617.885498 
	C2430.062500,2608.980225 2421.078857,2599.866943 2412.045166,2590.803467 
	C2397.363281,2576.073730 2382.663574,2561.361816 2367.942627,2546.671143 
	C2353.921631,2532.678955 2339.869385,2518.717773 2325.820068,2504.754150 
	C2305.657471,2484.714600 2285.482178,2464.688232 2265.317383,2444.650879 
	C2256.124756,2435.516602 2246.888184,2426.426025 2237.769043,2417.218994 
	C2217.381348,2396.634521 2197.085693,2375.958984 2176.670166,2355.402344 
	C2173.709229,2352.420654 2171.662842,2349.388428 2172.274414,2344.940918 
	C2172.589355,2342.650879 2172.329590,2340.281982 2172.329590,2337.948730 
	C2172.329590,2006.284302 2172.293457,1674.619995 2172.516113,1342.955688 
	C2172.522461,1333.614868 2170.039795,1327.079346 2163.274658,1320.397949 
	C2112.760742,1270.508911 2062.763184,1220.097290 2012.480835,1169.973389 
	C1963.333984,1120.981445 1914.023071,1072.154297 1864.820679,1023.218201 
	C1840.262695,998.793213 1815.896484,974.173950 1791.173096,949.918335 
	C1786.617554,945.449158 1785.655640,940.704224 1785.659912,934.781494 
	C1785.762939,794.782532 1785.739746,654.783569 1785.739746,514.784546 
	C1785.739746,511.138611 1785.739746,507.492676 1785.739746,502.630768 
	C1627.449585,525.274963 1477.109497,571.470886 1334.575317,642.149902 
	C1090.544434,763.158752 892.260742,937.052734 740.772095,1163.347534 
	C607.753845,1362.051025 525.458191,1580.687866 498.805420,1818.253662 
	C453.488556,2222.179688 552.195679,2588.821777 797.471497,2913.403076 
	C1044.122314,3239.804199 1384.342163,3413.636963 1675.713501,3474.694824 
	C1675.922852,3472.134033 1676.299072,3469.647705 1676.302856,3467.160889 
	C1676.345215,3439.494385 1676.179199,3411.826416 1676.452393,3384.162598 
	C1676.509521,3378.370117 1674.800781,3374.111328 1670.747803,3370.107422 
	C1642.867920,3342.565430 1615.077271,3314.932617 1587.341553,3287.245117 
	C1477.813721,3177.907715 1368.335815,3068.520020 1258.799194,2959.191162 
	C1209.131470,2909.617676 1159.433228,2860.074219 1109.545288,2810.722900 
	C1104.935547,2806.162598 1104.268188,2801.333496 1104.270264,2795.504883 
	C1104.341797,2594.173096 1104.329834,2392.841064 1104.329834,2191.509277 
	C1104.329834,2187.851562 1104.329834,2184.194092 1104.329834,2179.726318 
	C1022.087036,2152.727783 963.732544,2099.371338 932.210693,2018.672241 
	C909.998901,1961.807983 908.289612,1903.123535 926.702332,1844.889771 
	C965.467285,1722.288086 1080.468140,1646.117554 1208.461060,1658.614258 
	C1332.210693,1670.696411 1430.265503,1762.906860 1447.387817,1890.245239 
	C1463.067261,2006.852539 1396.935425,2135.120117 1260.120605,2179.479980 
	C1259.977905,2181.903076 1259.689575,2184.514160 1259.689209,2187.125244 
	C1259.668213,2368.790527 1259.696777,2550.456055 1259.549072,2732.121338 
	C1259.544434,2737.908203 1261.134033,2741.961182 1265.281738,2746.030518 
	C1298.955811,2779.066650 1332.482178,2812.254395 1365.894287,2845.555664 
	C1385.961182,2865.555664 1405.635986,2885.948975 1425.681885,2905.970459 
	C1446.816528,2927.079590 1468.300171,2947.839600 1489.429199,2968.954346 
	C1601.845093,3081.291504 1714.187134,3193.702637 1826.616211,3306.026611 
	C1830.302856,3309.709961 1832.484375,3313.278320 1832.474731,3318.914307 
	C1832.286255,3428.913330 1832.336060,3538.912354 1832.321533,3648.911621 
	C1832.321289,3651.164307 1832.135254,3653.416992 1831.988403,3656.745850 
	C1818.457764,3655.589111 1805.552490,3655.145264 1792.858765,3653.269531 
	C1762.356323,3648.761963 1731.996460,3643.291504 1701.498901,3638.746826 
	C1661.394897,3632.770752 1622.042114,3623.244629 1582.879395,3613.160889 
	C1551.082642,3604.973389 1519.744019,3594.906982 1488.451538,3584.894287 
	C1463.475220,3576.902344 1438.703247,3568.192383 1414.158325,3558.957031 
	C1391.788086,3550.540039 1369.512695,3541.713623 1347.787720,3531.773193 
	C1310.949585,3514.917969 1274.259033,3497.673096 1238.118774,3479.382080 
	C1212.944214,3466.641113 1188.451294,3452.444336 1164.274780,3437.868408 
	C1136.138428,3420.905273 1108.316406,3403.360107 1081.034790,3385.058594 
	C1056.746582,3368.765381 1033.040039,3351.546875 1009.705688,3333.905273 
	C986.119934,3316.072998 963.306702,3297.219482 939.597900,3278.373047 
M2620.226318,2651.116943 
	C2611.381348,2657.494629 2601.294922,2662.691650 2593.910400,2670.457764 
	C2564.966064,2700.899414 2552.312256,2736.677246 2564.613770,2778.210938 
	C2577.890869,2823.039062 2608.237793,2851.205811 2654.239258,2858.846924 
	C2699.405029,2866.349365 2736.660156,2850.024170 2763.702393,2812.720459 
	C2774.523193,2797.793213 2780.975586,2781.000732 2782.704346,2762.136230 
	C2783.933838,2748.717773 2783.665527,2735.679688 2780.507812,2722.770996 
	C2774.909912,2699.887695 2762.836670,2681.014893 2745.130127,2665.286377 
	C2710.789062,2634.781494 2660.270996,2629.625244 2620.226318,2651.116943 
M1184.617554,2035.677368 
	C1209.365845,2033.911133 1231.802002,2026.569092 1251.455566,2010.612305 
	C1277.157104,1989.745239 1291.473389,1962.955811 1293.447388,1930.340698 
	C1295.724976,1892.709717 1281.308105,1861.435669 1252.045654,1837.781128 
	C1223.118164,1814.397461 1189.919556,1806.643799 1153.778931,1816.107178 
	C1093.679932,1831.843994 1056.836548,1893.310059 1074.943115,1955.036743 
	C1088.648804,2001.761108 1130.505005,2035.135254 1184.617554,2035.677368 
z"/>
<path fill="#000101" opacity="1.000000" stroke="none" 
	d="
M1281.957031,1129.655273 
	C1321.804077,1131.219971 1352.641602,1148.048096 1374.369141,1180.088745 
	C1386.021729,1197.272217 1392.526611,1216.483521 1392.399536,1238.057129 
	C1392.299561,1255.006958 1390.096558,1271.063477 1383.031494,1286.394287 
	C1369.750610,1315.212280 1347.995483,1335.386963 1318.493408,1346.360596 
	C1297.993530,1353.985718 1276.715332,1355.602295 1255.057861,1349.549194 
	C1208.518433,1336.541748 1180.485962,1305.827881 1171.163696,1259.273315 
	C1167.436646,1240.661133 1169.381714,1221.286987 1176.680542,1202.556885 
	C1187.915405,1173.726685 1207.186035,1153.024658 1234.710571,1139.984741 
	C1249.193848,1133.123169 1264.764771,1129.473145 1281.957031,1129.655273 
z"/>
<path fill="#000101" opacity="1.000000" stroke="none" 
	d="
M2719.458984,2116.377686 
	C2695.093018,2057.728760 2723.862549,1995.477295 2779.901367,1971.533203 
	C2837.364990,1946.979858 2901.897705,1975.097778 2925.448242,2031.877686 
	C2949.108154,2088.922363 2922.404541,2154.131592 2862.690430,2178.188477 
	C2807.074463,2200.594482 2742.745605,2172.524414 2719.458984,2116.377686 
z"/>
<path fill="#010101" opacity="1.000000" stroke="none" 
	d="
M2620.863281,2650.725342 
	C2660.270996,2629.625244 2710.789062,2634.781494 2745.130127,2665.286377 
	C2762.836670,2681.014893 2774.909912,2699.887695 2780.507812,2722.770996 
	C2783.665527,2735.679688 2783.933838,2748.717773 2782.704346,2762.136230 
	C2780.975586,2781.000732 2774.523193,2797.793213 2763.702393,2812.720459 
	C2736.660156,2850.024170 2699.405029,2866.349365 2654.239258,2858.846924 
	C2608.237793,2851.205811 2577.890869,2823.039062 2564.613770,2778.210938 
	C2552.312256,2736.677246 2564.966064,2700.899414 2593.910400,2670.457764 
	C2601.294922,2662.691650 2611.381348,2657.494629 2620.863281,2650.725342 
z"/>
<path fill="#010101" opacity="1.000000" stroke="none" 
	d="
M1183.717773,2035.677979 
	C1130.505005,2035.135254 1088.648804,2001.761108 1074.943115,1955.036743 
	C1056.836548,1893.310059 1093.679932,1831.843994 1153.778931,1816.107178 
	C1189.919556,1806.643799 1223.118164,1814.397461 1252.045654,1837.781128 
	C1281.308105,1861.435669 1295.724976,1892.709717 1293.447388,1930.340698 
	C1291.473389,1962.955811 1277.157104,1989.745239 1251.455566,2010.612305 
	C1231.802002,2026.569092 1209.365845,2033.911133 1183.717773,2035.677979 
z"/>
</svg>